<svg width="126" height="50" viewBox="0 0 126 50" fill="none" xmlns="http://www.w3.org/2000/svg">
<path d="M25.8176 29.8056V33.9025H0.305664V0.9468H25.8176V5.04377H5.33859V15.1645H22.9709V19.1714H5.33859V29.8056H25.8347H25.8176Z" fill="#111111"/>
<path d="M54.8506 25.6602H37.4793L33.8726 33.8956H29.0637L43.877 0.93792H48.5058L63.3668 33.9115H58.452L54.8453 25.6761V25.6602H54.8506ZM53.2247 21.8946L46.1755 5.74149L39.1264 21.8946H53.23H53.2247Z" fill="#111111"/>
<path d="M66.5955 30.0128L68.5091 26.3794C71.1835 28.5637 75.7949 30.1577 80.4414 30.1577C86.6913 30.1577 89.3657 27.9734 89.3657 25.1235C89.3657 17.1375 67.4733 22.1878 67.4733 10.0425C67.4733 5.00826 71.8096 0.714714 81.3192 0.714714C85.556 0.714714 89.9509 1.73443 92.9355 3.61823L91.2384 7.34288C88.0958 5.51812 84.5202 4.67551 81.3192 4.67551C75.1687 4.67551 72.5528 7.00476 72.5528 9.84924C72.5528 17.8352 94.4453 12.8386 94.4453 24.8391C94.4453 29.8357 90.0153 34.1346 80.4648 34.1346C74.9405 34.1346 69.5273 32.4494 66.6189 30.0343L66.6013 30.0182L66.5955 30.0128Z" fill="#111111"/>
<path d="M97.6746 17.4247C97.6746 7.90212 104.589 0.9468 113.897 0.9468C118.625 0.9468 122.729 2.64064 125.524 5.9648L122.679 8.8602C120.315 6.22946 117.436 5.04377 114.065 5.04377C107.151 5.04377 102.041 10.2894 102.041 17.4247C102.041 24.56 107.151 29.8056 114.065 29.8056C117.441 29.8056 120.315 28.567 122.679 25.9362L125.524 28.8316C122.729 32.1505 118.61 33.9025 113.847 33.9025C104.584 33.9025 97.6746 26.9631 97.6746 17.4247Z" fill="#111111"/>
<path fill-rule="evenodd" clip-rule="evenodd" d="M52.5318 45.2271L50.9758 49.1974H51.8001L52.1318 48.3H53.7658L54.1121 49.1974H54.9608L53.3707 45.2271H52.5318ZM52.322 47.6708L52.9415 46.0612L53.5804 47.6708H52.322Z" fill="#111111"/>
<path fill-rule="evenodd" clip-rule="evenodd" d="M58.5452 47.9585L56.6235 45.2271H55.8918V49.1925H56.6283V46.427L58.5501 49.1925H59.2817V45.2271H58.5452V47.9585Z" fill="#111111"/>
<path fill-rule="evenodd" clip-rule="evenodd" d="M84.3034 45.7394C84.1083 45.5492 83.8839 45.4029 83.6205 45.2956C83.362 45.1883 83.0742 45.1346 82.7718 45.1346C82.4694 45.1346 82.1817 45.1883 81.9134 45.2907C81.6549 45.3931 81.4256 45.5395 81.2305 45.7248C81.0354 45.9101 80.8891 46.1296 80.7818 46.3833C80.6745 46.6369 80.6208 46.91 80.6208 47.2027C80.6208 47.4953 80.6745 47.7685 80.7818 48.0172C80.8891 48.266 81.0403 48.4904 81.2305 48.6757C81.4256 48.861 81.65 49.0074 81.9134 49.1147C82.1768 49.2171 82.4597 49.2708 82.7718 49.2708C83.084 49.2708 83.362 49.2171 83.6205 49.1147C83.8839 49.0074 84.1083 48.861 84.3034 48.6757C84.4985 48.4904 84.6497 48.2709 84.757 48.0172C84.8643 47.7636 84.9179 47.4953 84.9179 47.2027C84.9179 46.91 84.8643 46.6467 84.757 46.393C84.6497 46.1394 84.4985 45.9199 84.3034 45.7346V45.7394ZM84.0254 47.7782C83.9571 47.9441 83.8595 48.0904 83.7376 48.2123C83.6156 48.3294 83.4693 48.4221 83.3035 48.4904C83.1376 48.5538 82.9621 48.5879 82.7718 48.5879C82.5133 48.5879 82.2841 48.5294 82.0792 48.4172C81.8744 48.305 81.7134 48.1441 81.5915 47.9392C81.4744 47.7343 81.4159 47.4905 81.4159 47.2124C81.4159 47.0027 81.45 46.8125 81.5183 46.6467C81.5866 46.4808 81.6842 46.3345 81.8061 46.2126C81.928 46.0906 82.0744 45.9979 82.2402 45.9345C82.406 45.8711 82.5816 45.837 82.7767 45.837C83.0303 45.837 83.2596 45.8955 83.4693 46.0077C83.6742 46.1199 83.8351 46.2808 83.9571 46.4857C84.0741 46.6906 84.1375 46.9344 84.1375 47.2124C84.1375 47.4222 84.1034 47.6075 84.0351 47.7782H84.0254Z" fill="#111111"/>
<path fill-rule="evenodd" clip-rule="evenodd" d="M73.4943 46.7684H71.6457V45.2271H70.8945V49.1925H71.6457V47.4415H73.4943V49.1925H74.2454V45.2271H73.4943V46.7684Z" fill="#111111"/>
<path fill-rule="evenodd" clip-rule="evenodd" d="M79.0702 45.7394C78.8751 45.5492 78.6508 45.4029 78.3874 45.2956C78.124 45.1883 77.8411 45.1346 77.5387 45.1346C77.2363 45.1346 76.9485 45.1883 76.6851 45.2907C76.4217 45.3931 76.1974 45.5395 76.0023 45.7248C75.8072 45.9101 75.6608 46.1296 75.5535 46.3833C75.4462 46.6369 75.3926 46.91 75.3926 47.2027C75.3926 47.4953 75.4462 47.7685 75.5535 48.0172C75.6608 48.2709 75.8072 48.4904 76.0023 48.6757C76.1974 48.861 76.4217 49.0074 76.6851 49.1147C76.9485 49.2171 77.2314 49.2708 77.5387 49.2708C77.846 49.2708 78.1289 49.2171 78.3874 49.1147C78.6508 49.0074 78.8751 48.861 79.0702 48.6757C79.2653 48.4904 79.4165 48.2709 79.5238 48.0172C79.6311 47.7636 79.6848 47.4953 79.6848 47.2027C79.6848 46.91 79.6311 46.6467 79.5238 46.393C79.4165 46.1394 79.2653 45.9199 79.0702 45.7346V45.7394ZM78.7922 47.7782C78.7239 47.9441 78.6264 48.0904 78.5044 48.2123C78.3825 48.3294 78.2411 48.4221 78.0703 48.4904C77.9045 48.5538 77.7289 48.5879 77.5387 48.5879C77.2802 48.5879 77.0509 48.5294 76.8461 48.4172C76.6412 48.305 76.4803 48.1441 76.3583 47.9392C76.2413 47.7343 76.1827 47.4905 76.1827 47.2124C76.1827 47.0027 76.2169 46.8125 76.2852 46.6467C76.3535 46.4808 76.451 46.3345 76.5729 46.2126C76.6949 46.0906 76.8412 45.9979 77.007 45.9345C77.1729 45.8711 77.3485 45.837 77.5436 45.837C77.7972 45.837 78.0264 45.8955 78.2362 46.0077C78.441 46.1199 78.602 46.2808 78.7239 46.4857C78.8459 46.6906 78.9044 46.9344 78.9044 47.2124C78.9044 47.4222 78.8703 47.6075 78.802 47.7782H78.7922Z" fill="#111111"/>
<path fill-rule="evenodd" clip-rule="evenodd" d="M6.62852 46.7684H4.77994V45.2271H4.02881V49.1925H4.77994V47.4415H6.62852V49.1925H7.37965V45.2271H6.62852V46.7684Z" fill="#111111"/>
<path fill-rule="evenodd" clip-rule="evenodd" d="M9.53141 47.4366H11.1946V46.8318H9.53141V45.871H11.4775V45.2271H8.77539V49.1925H11.497V48.5438H9.53141V47.4366Z" fill="#111111"/>
<path fill-rule="evenodd" clip-rule="evenodd" d="M49.5365 48.4756C49.3512 48.5341 49.161 48.5634 48.9659 48.5634C48.6781 48.5634 48.4245 48.5097 48.2147 48.4024C48.005 48.2951 47.8392 48.139 47.727 47.939C47.6148 47.7391 47.5563 47.4952 47.5563 47.2074C47.5563 46.9977 47.5904 46.8123 47.6538 46.6465C47.7172 46.4807 47.8099 46.3392 47.9318 46.2222C48.0538 46.1051 48.1952 46.0124 48.3659 45.949C48.5366 45.8856 48.7269 45.8563 48.9415 45.8563C49.1415 45.8563 49.3268 45.8856 49.4878 45.9393C49.6536 45.9929 49.7999 46.0807 49.9218 46.1929L50.3072 45.5881C50.1316 45.4466 49.9316 45.3344 49.7024 45.2564C49.478 45.1784 49.2049 45.1393 48.8829 45.1393C48.561 45.1393 48.2879 45.1881 48.0294 45.2905C47.7709 45.393 47.5465 45.5344 47.3563 45.7198C47.1661 45.9051 47.0197 46.1246 46.9173 46.3782C46.8149 46.627 46.7612 46.905 46.7612 47.2123C46.7612 47.6317 46.849 47.9927 47.0246 48.3048C47.2002 48.6121 47.449 48.8511 47.766 49.0218C48.083 49.1926 48.4537 49.2755 48.8732 49.2755C49.1951 49.2755 49.4829 49.2364 49.7365 49.1535C49.9901 49.0706 50.2145 48.9584 50.4096 48.8121L50.0633 48.1927C49.8975 48.3195 49.7219 48.4121 49.5317 48.4756H49.5365Z" fill="#111111"/>
<path fill-rule="evenodd" clip-rule="evenodd" d="M86.8095 45.2271H86.0583V49.1925H88.5361V48.5194H86.8095V45.2271Z" fill="#111111"/>
<path fill-rule="evenodd" clip-rule="evenodd" d="M19.5691 45.2271L18.0132 49.1974H18.8424L19.174 48.3H20.808L21.1543 49.1974H22.003L20.4129 45.2271H19.574H19.5691ZM19.3545 47.6708L19.9739 46.0612L20.6129 47.6708H19.3545Z" fill="#111111"/>
<path fill-rule="evenodd" clip-rule="evenodd" d="M15.2629 47.4366H16.9261V46.8318H15.2629V45.871H17.209V45.2271H14.5068V49.1925H17.2285V48.5438H15.2629V47.4366Z" fill="#111111"/>
<path d="M45.6244 45.2271H44.8684V49.1974H45.6244V45.2271Z" fill="#111111"/>
<path fill-rule="evenodd" clip-rule="evenodd" d="M43.122 47.3049C43.2683 47.2074 43.3854 47.0806 43.4683 46.9343C43.5512 46.7831 43.5951 46.6123 43.5951 46.4172C43.5951 46.1734 43.5366 45.9588 43.4195 45.7832C43.3025 45.6076 43.1366 45.471 42.9269 45.3734C42.7123 45.2759 42.4636 45.2271 42.1758 45.2271H40.6052V49.1974H41.3612V47.6464H41.849L42.8976 49.1974H43.8049L42.6245 47.5147C42.8147 47.4757 42.9854 47.4074 43.1318 47.3098L43.122 47.3049ZM41.3564 47.0367V45.8417H42.1026C42.3416 45.8417 42.5221 45.8953 42.6489 45.9978C42.7708 46.1002 42.8342 46.2514 42.8342 46.4514C42.8342 46.6514 42.766 46.7879 42.6294 46.8904C42.4928 46.9879 42.3075 47.0367 42.0636 47.0367H41.3564Z" fill="#111111"/>
<path fill-rule="evenodd" clip-rule="evenodd" d="M33.4746 45.2271L31.9187 49.1974H32.7479L33.0795 48.3H34.7135L35.0598 49.1974H35.9085L34.3184 45.2271H33.4795H33.4746ZM33.2649 47.6708L33.8843 46.0612L34.5233 47.6708H33.2649Z" fill="#111111"/>
<path fill-rule="evenodd" clip-rule="evenodd" d="M36.8352 49.1925H37.5912V47.5878H39.2203V46.9343H37.5912V45.9002H39.4008V45.2271H36.8352V49.1925Z" fill="#111111"/>
<path fill-rule="evenodd" clip-rule="evenodd" d="M27.7146 49.1925H28.4706V45.9002H29.5924V45.2271H26.5928V45.9002H27.7146V49.1925Z" fill="#111111"/>
<path fill-rule="evenodd" clip-rule="evenodd" d="M23.743 45.2272C23.5577 45.2857 23.4016 45.3638 23.265 45.4711C23.1334 45.5784 23.0261 45.7003 22.9529 45.8466C22.8797 45.993 22.8407 46.1539 22.8407 46.3295C22.8407 46.5978 22.9285 46.827 23.1041 47.0124C23.2797 47.1977 23.5675 47.344 23.9674 47.4513L24.3625 47.5635C24.6454 47.6416 24.8356 47.7245 24.938 47.8123C25.0405 47.9001 25.0941 48.0074 25.0941 48.1391C25.0941 48.3049 25.021 48.4317 24.8697 48.5195C24.7185 48.6073 24.5235 48.6512 24.2796 48.6512C24.1332 48.6512 23.9869 48.6366 23.8406 48.6024C23.6943 48.5683 23.5577 48.5195 23.4309 48.461C23.2992 48.4025 23.1919 48.3293 23.0992 48.2464L22.7334 48.8073C22.9236 48.9585 23.1529 49.0804 23.4309 49.1634C23.7089 49.2463 23.9918 49.2853 24.2796 49.2853C24.6015 49.2853 24.8746 49.2365 25.1087 49.1341C25.3429 49.0317 25.5185 48.8853 25.6404 48.7049C25.7623 48.5195 25.8257 48.3098 25.8257 48.0708C25.8257 47.7928 25.7379 47.5635 25.5575 47.3879C25.3819 47.2123 25.0941 47.0709 24.7088 46.9587L24.2991 46.8417C24.1089 46.788 23.9625 46.7343 23.8601 46.6856C23.7528 46.6319 23.6796 46.5783 23.6357 46.5197C23.5918 46.4612 23.5723 46.388 23.5723 46.3051C23.5723 46.1929 23.6065 46.1003 23.6699 46.0222C23.7333 45.9442 23.8211 45.8857 23.9381 45.8418C24.0503 45.8027 24.1869 45.7784 24.3381 45.7784C24.4698 45.7784 24.5966 45.793 24.7234 45.8223C24.8502 45.8515 24.9722 45.8905 25.0795 45.9491C25.1917 46.0027 25.2843 46.0661 25.3672 46.1442L25.7428 45.6028C25.5867 45.4662 25.3868 45.354 25.1478 45.276C24.9039 45.1931 24.6405 45.154 24.3576 45.154C24.143 45.154 23.943 45.1833 23.7577 45.237L23.743 45.2272Z" fill="#111111"/>
<path fill-rule="evenodd" clip-rule="evenodd" d="M67.2264 49.0218C67.5435 49.1926 67.9142 49.2755 68.3336 49.2755C68.6555 49.2755 68.9433 49.2364 69.197 49.1535C69.4506 49.0706 69.675 48.9584 69.8701 48.8121L69.5237 48.1927C69.3579 48.3195 69.1823 48.4121 68.9921 48.4756C68.8068 48.5341 68.6165 48.5634 68.4214 48.5634C68.1288 48.5634 67.88 48.5097 67.6703 48.4024C67.4606 48.2951 67.2947 48.139 67.1825 47.939C67.0704 47.7391 67.0118 47.4952 67.0118 47.2074C67.0118 46.9977 67.046 46.8123 67.1094 46.6465C67.1728 46.4807 67.2655 46.3392 67.3874 46.2222C67.5093 46.1051 67.6508 46.0124 67.8215 45.949C67.9922 45.8856 68.1824 45.8563 68.397 45.8563C68.597 45.8563 68.7824 45.8856 68.9433 45.9393C69.1092 45.9929 69.2555 46.0807 69.3774 46.1929L69.7628 45.5881C69.5872 45.4466 69.3872 45.3344 69.1579 45.2564C68.9336 45.1784 68.6604 45.1393 68.3385 45.1393C68.0166 45.1393 67.7435 45.1881 67.485 45.2905C67.2264 45.393 67.0021 45.5344 66.8119 45.7198C66.6216 45.9051 66.4753 46.1246 66.3729 46.3782C66.2705 46.627 66.2168 46.905 66.2168 47.2123C66.2168 47.6317 66.3046 47.9927 66.4802 48.3048C66.6558 48.6121 66.9045 48.8511 67.2216 49.0218H67.2264Z" fill="#111111"/>
<path fill-rule="evenodd" clip-rule="evenodd" d="M62.7797 45.4711C62.648 45.5784 62.5407 45.7003 62.4675 45.8466C62.3944 45.993 62.3554 46.1539 62.3554 46.3295C62.3554 46.5978 62.4432 46.827 62.6187 47.0124C62.7943 47.1977 63.0821 47.344 63.4821 47.4513L63.8771 47.5635C64.1552 47.6416 64.3502 47.7245 64.4527 47.8123C64.5551 47.9001 64.6088 48.0074 64.6088 48.1391C64.6088 48.3049 64.5356 48.4317 64.3844 48.5195C64.2332 48.6073 64.0381 48.6512 63.7942 48.6512C63.6479 48.6512 63.5016 48.6366 63.3552 48.6024C63.2089 48.5683 63.0723 48.5195 62.9455 48.461C62.8138 48.4025 62.7065 48.3293 62.6139 48.2464L62.248 48.8073C62.4383 48.9585 62.6675 49.0804 62.9455 49.1634C63.2235 49.2463 63.5064 49.2853 63.7942 49.2853C64.1161 49.2853 64.3893 49.2365 64.6234 49.1341C64.8575 49.0317 65.0331 48.8853 65.155 48.7049C65.277 48.5195 65.3404 48.3098 65.3404 48.0708C65.3404 47.7928 65.2526 47.5635 65.0721 47.3879C64.8965 47.2123 64.6088 47.0709 64.2234 46.9587L63.8137 46.8417C63.6235 46.788 63.4772 46.7343 63.3748 46.6856C63.2674 46.6319 63.1943 46.5783 63.1504 46.5197C63.1065 46.4612 63.087 46.388 63.087 46.3051C63.087 46.1929 63.1211 46.1003 63.1845 46.0222C63.2479 45.9442 63.3357 45.8857 63.4528 45.8418C63.565 45.8027 63.7015 45.7784 63.8528 45.7784C63.9844 45.7784 64.1112 45.793 64.2381 45.8223C64.3649 45.8515 64.4868 45.8905 64.5941 45.9491C64.7063 46.0027 64.799 46.0661 64.8819 46.1442L65.2575 45.6028C65.1014 45.4662 64.9014 45.354 64.6624 45.276C64.4185 45.1931 64.1551 45.154 63.8723 45.154C63.6576 45.154 63.4577 45.1833 63.2723 45.237C63.087 45.2955 62.9309 45.3735 62.7943 45.4808L62.7797 45.4711Z" fill="#111111"/>
<path fill-rule="evenodd" clip-rule="evenodd" d="M1.12183 49.1925H1.88272V45.9002H3.00455V45.2271H0V45.9002H1.12183V49.1925Z" fill="#111111"/>
<path fill-rule="evenodd" clip-rule="evenodd" d="M115.373 49.1925H116.129V47.5878H117.758V46.9343H116.129V45.9002H117.939V45.2271H115.373V49.1925Z" fill="#111111"/>
<path fill-rule="evenodd" clip-rule="evenodd" d="M96.5613 49.1925H97.3124V47.5878H98.9464V46.9343H97.3124V45.9002H99.122V45.2271H96.5613V49.1925Z" fill="#111111"/>
<path fill-rule="evenodd" clip-rule="evenodd" d="M109.851 45.7394C109.656 45.5492 109.432 45.4029 109.169 45.2956C108.905 45.1883 108.622 45.1346 108.32 45.1346C108.018 45.1346 107.73 45.1883 107.466 45.2907C107.203 45.3931 106.979 45.5395 106.784 45.7248C106.588 45.9101 106.442 46.1296 106.335 46.3833C106.227 46.6369 106.174 46.91 106.174 47.2027C106.174 47.4953 106.227 47.7685 106.335 48.0172C106.442 48.2709 106.593 48.4904 106.784 48.6757C106.979 48.861 107.203 49.0074 107.466 49.1147C107.73 49.2171 108.013 49.2708 108.32 49.2708C108.627 49.2708 108.91 49.2171 109.169 49.1147C109.432 49.0074 109.656 48.861 109.851 48.6757C110.047 48.4904 110.198 48.2709 110.305 48.0172C110.412 47.7636 110.466 47.4953 110.466 47.2027C110.466 46.91 110.412 46.6467 110.305 46.393C110.198 46.1394 110.047 45.9199 109.851 45.7346V45.7394ZM109.573 47.7782C109.505 47.9441 109.408 48.0904 109.286 48.2123C109.164 48.3294 109.017 48.4221 108.852 48.4904C108.686 48.5538 108.51 48.5879 108.32 48.5879C108.061 48.5879 107.832 48.5294 107.627 48.4172C107.422 48.305 107.262 48.1441 107.14 47.9392C107.023 47.7343 106.964 47.4905 106.964 47.2124C106.964 47.0027 106.998 46.8125 107.066 46.6467C107.135 46.4808 107.232 46.3345 107.354 46.2126C107.476 46.0906 107.622 45.9979 107.788 45.9345C107.954 45.8711 108.13 45.837 108.325 45.837C108.578 45.837 108.808 45.8955 109.017 46.0077C109.222 46.1199 109.383 46.2808 109.505 46.4857C109.627 46.6906 109.686 46.9344 109.686 47.2124C109.686 47.4222 109.651 47.6075 109.583 47.7782H109.573Z" fill="#111111"/>
<path fill-rule="evenodd" clip-rule="evenodd" d="M104.608 48.4756C104.422 48.5341 104.232 48.5634 104.037 48.5634C103.749 48.5634 103.496 48.5097 103.286 48.4024C103.076 48.2951 102.91 48.139 102.798 47.939C102.686 47.7391 102.628 47.4952 102.628 47.2074C102.628 46.9977 102.662 46.8123 102.725 46.6465C102.789 46.4807 102.881 46.3392 103.003 46.2222C103.125 46.1051 103.266 46.0124 103.437 45.949C103.608 45.8856 103.798 45.8563 104.013 45.8563C104.213 45.8563 104.398 45.8856 104.559 45.9393C104.725 45.9929 104.871 46.0807 104.993 46.1929L105.378 45.5881C105.203 45.4466 105.003 45.3344 104.774 45.2564C104.549 45.1784 104.276 45.1393 103.954 45.1393C103.632 45.1393 103.359 45.1881 103.101 45.2905C102.842 45.393 102.618 45.5344 102.428 45.7198C102.237 45.9051 102.091 46.1246 101.989 46.3782C101.886 46.627 101.833 46.905 101.833 47.2123C101.833 47.6317 101.92 47.9927 102.096 48.3048C102.271 48.6121 102.52 48.8511 102.837 49.0218C103.154 49.1926 103.525 49.2755 103.944 49.2755C104.266 49.2755 104.554 49.2364 104.808 49.1535C105.061 49.0706 105.286 48.9584 105.481 48.8121L105.135 48.1927C104.969 48.3195 104.793 48.4121 104.603 48.4756H104.608Z" fill="#111111"/>
<path fill-rule="evenodd" clip-rule="evenodd" d="M111.603 49.1925H112.359V47.5878H113.993V46.9343H112.359V45.9002H114.169V45.2271H111.603V49.1925Z" fill="#111111"/>
<path fill-rule="evenodd" clip-rule="evenodd" d="M91.7357 45.7344C91.5406 45.9197 91.3942 46.1392 91.2869 46.3929C91.1796 46.6465 91.126 46.9196 91.126 47.2123C91.126 47.5049 91.1796 47.7781 91.2869 48.0268C91.3942 48.2805 91.5454 48.4999 91.7357 48.6853C91.9308 48.8706 92.1551 49.017 92.4185 49.1243C92.6819 49.2267 92.9648 49.2804 93.277 49.2804C93.5891 49.2804 93.8671 49.2267 94.1256 49.1243C94.3841 49.017 94.6134 48.8706 94.8085 48.6853C95.0036 48.4999 95.1548 48.2805 95.2621 48.0268C95.3694 47.7732 95.4231 47.5049 95.4231 47.2123C95.4231 46.9196 95.3694 46.6562 95.2621 46.4026C95.1548 46.149 95.0036 45.9295 94.8085 45.7442C94.6134 45.5539 94.389 45.4076 94.1256 45.3003C93.8623 45.193 93.5794 45.1393 93.277 45.1393C92.9746 45.1393 92.6819 45.193 92.4185 45.2954C92.16 45.3979 91.9308 45.5442 91.7357 45.7295V45.7344ZM93.2721 45.8368C93.5257 45.8368 93.755 45.8954 93.9598 46.0075C94.1647 46.1197 94.3256 46.2807 94.4476 46.4855C94.5695 46.6904 94.628 46.9343 94.628 47.2123C94.628 47.422 94.5939 47.6074 94.5256 47.7781C94.4573 47.9439 94.3646 48.0902 94.2378 48.2122C94.1159 48.3292 93.9744 48.4219 93.8037 48.4902C93.6379 48.5536 93.4623 48.5877 93.2721 48.5877C93.0136 48.5877 92.7843 48.5292 92.5795 48.417C92.3746 48.3048 92.2137 48.1439 92.0917 47.939C91.9747 47.7342 91.9161 47.4903 91.9161 47.2123C91.9161 47.0026 91.9503 46.8123 92.0186 46.6465C92.0869 46.4807 92.1844 46.3343 92.3063 46.2124C92.4283 46.0905 92.5746 45.9978 92.7404 45.9344C92.9063 45.871 93.0819 45.8368 93.277 45.8368H93.2721Z" fill="#111111"/>
<path fill-rule="evenodd" clip-rule="evenodd" d="M123.864 47.4366H125.528V46.8318H123.864V45.871H125.811V45.2271H123.108V49.1925H125.83V48.5438H123.864V47.4366Z" fill="#111111"/>
<path fill-rule="evenodd" clip-rule="evenodd" d="M119.894 47.4366H121.562V46.8318H119.894V45.871H121.84V45.2271H119.143V49.1925H121.865V48.5438H119.894V47.4366Z" fill="#111111"/>
</svg>
